<?xml version="1.0" standalone="no"?>
<!DOCTYPE svg PUBLIC "-//W3C//DTD SVG 20010904//EN"
 "http://www.w3.org/TR/2001/REC-SVG-20010904/DTD/svg10.dtd">
<svg version="1.0" xmlns="http://www.w3.org/2000/svg"
 width="700.000000pt" height="700.000000pt" viewBox="0 0 700.000000 700.000000"
 preserveAspectRatio="xMidYMid meet">
<metadata>
Created by potrace 1.11, written by Peter Selinger 2001-2013
</metadata>
<g transform="translate(0.000000,700.000000) scale(0.100000,-0.100000)"
fill="#000000" stroke="none">
<path d="M3285 6994 c-204 -19 -289 -29 -405 -51 -728 -132 -1368 -472 -1885
-1004 -168 -173 -284 -316 -410 -504 -222 -336 -384 -701 -480 -1088 -28 -115
-75 -356 -75 -389 0 -5 511 -8 1136 -8 l1135 0 11 33 c6 17 28 64 48 103 183
356 525 609 915 679 116 21 332 21 447 1 382 -69 714 -306 901 -643 24 -45 53
-102 62 -127 l18 -46 1133 0 c624 0 1134 3 1134 8 0 33 -47 274 -75 389 -242
974 -904 1808 -1799 2267 -369 189 -754 307 -1181 362 -112 14 -541 27 -630
18z"/>
<path d="M3374 4230 c-270 -49 -491 -245 -581 -515 -23 -71 -26 -95 -26 -215
0 -120 3 -144 26 -215 81 -242 250 -411 492 -492 71 -23 95 -26 215 -26 120 0
144 3 215 26 242 81 411 250 492 492 23 71 26 95 26 215 0 120 -3 144 -26 215
-103 309 -363 509 -677 520 -58 2 -128 0 -156 -5z"/>
<path d="M30 3031 c0 -5 11 -72 26 -148 63 -342 155 -622 304 -928 291 -595
766 -1111 1344 -1458 422 -253 869 -406 1386 -474 189 -24 631 -24 820 0 828
108 1528 455 2095 1038 497 510 811 1119 940 1822 14 76 25 143 25 148 0 5
-439 9 -1135 9 l-1134 0 -39 -82 c-173 -369 -500 -625 -912 -714 -118 -26
-381 -26 -498 -1 -258 57 -480 176 -656 355 -112 114 -175 202 -239 333 l-52
108 -1137 0 c-699 1 -1138 -3 -1138 -8z"/>
</g>
</svg>
